<svg viewBox="0 0 800 800" xmlns="http://www.w3.org/2000/svg">
  <defs>
    <linearGradient id="waveBg" x1="0" y1="0" x2="1" y2="1">
      <stop offset="0%" stop-color="#0E2A4A"/>
      <stop offset="100%" stop-color="#123B5C"/>
    </linearGradient>
    <linearGradient id="wave1" x1="0" y1="0" x2="1" y2="0">
      <stop offset="0%" stop-color="#23C7B8"/>
      <stop offset="100%" stop-color="#3CA7E0"/>
    </linearGradient>
    <linearGradient id="wave2" x1="0" y1="0" x2="1" y2="0">
      <stop offset="0%" stop-color="#F2B84B"/>
      <stop offset="100%" stop-color="#EF7C5C"/>
    </linearGradient>
    <linearGradient id="wave3" x1="0" y1="0" x2="1" y2="0">
      <stop offset="0%" stop-color="#9D6BE0"/>
      <stop offset="100%" stop-color="#5B7CE0"/>
    </linearGradient>
  </defs>
  <rect width="800" height="800" fill="url(#waveBg)"/>
  <path d="M0 200 C 200 120, 300 280, 500 220 C 650 180, 720 260, 800 220 L800 340 C 700 300, 620 380, 480 340 C 320 300, 220 200, 0 320 Z" fill="url(#wave1)" opacity="0.92"/>
  <path d="M0 380 C 180 300, 320 460, 520 400 C 660 360, 720 440, 800 400 L800 520 C 680 480, 600 560, 440 510 C 280 460, 180 380, 0 480 Z" fill="url(#wave2)" opacity="0.9"/>
  <path d="M0 540 C 200 460, 340 620, 540 560 C 670 520, 730 600, 800 560 L800 800 L0 800 Z" fill="url(#wave3)" opacity="0.95"/>
</svg>
