<svg viewBox="0 0 800 800" xmlns="http://www.w3.org/2000/svg">
  <defs>
    <linearGradient id="bgFox" x1="0" y1="0" x2="1" y2="1">
      <stop offset="0%" stop-color="#FBEFE3"/>
      <stop offset="100%" stop-color="#F3D9C4"/>
    </linearGradient>
    <linearGradient id="furOuter" x1="0" y1="0" x2="0" y2="1">
      <stop offset="0%" stop-color="#F0793C"/>
      <stop offset="100%" stop-color="#D9551E"/>
    </linearGradient>
  </defs>
  <rect width="800" height="800" fill="url(#bgFox)"/>
  <polygon points="150,260 280,80 330,300" fill="url(#furOuter)"/>
  <polygon points="650,260 520,80 470,300" fill="url(#furOuter)"/>
  <polygon points="180,270 300,150 320,290" fill="#3A2530"/>
  <polygon points="620,270 500,150 480,290" fill="#3A2530"/>
  <path d="M400 180 L600 360 Q620 520 460 620 L400 660 L340 620 Q180 520 200 360 Z" fill="url(#furOuter)"/>
  <path d="M400 320 L520 420 Q520 540 420 590 L400 600 L380 590 Q280 540 280 420 Z" fill="#FBEFE3"/>
  <circle cx="345" cy="380" r="18" fill="#241A22"/>
  <circle cx="455" cy="380" r="18" fill="#241A22"/>
  <polygon points="400 430 380 470 420 470" fill="#241A22"/>
  <path d="M380 480 Q400 500 420 480" stroke="#241A22" stroke-width="6" fill="none" stroke-linecap="round"/>
</svg>
